<!-- Image Prompt: "Abstract illustration representing lifecycle automation and customer engagement optimization. Soft gradients, interconnected nodes, modern SaaS aesthetic, no branding." -->
<svg viewBox="0 0 400 240" fill="none" xmlns="http://www.w3.org/2000/svg">
  <defs>
    <linearGradient id="bg1" x1="0%" y1="0%" x2="100%" y2="100%">
      <stop offset="0%" style="stop-color:#1e293b"/>
      <stop offset="100%" style="stop-color:#0f172a"/>
    </linearGradient>
    <linearGradient id="grad1" x1="0%" y1="0%" x2="100%" y2="100%">
      <stop offset="0%" style="stop-color:#3b82f6"/>
      <stop offset="100%" style="stop-color:#8b5cf6"/>
    </linearGradient>
    <linearGradient id="grad2" x1="0%" y1="0%" x2="100%" y2="100%">
      <stop offset="0%" style="stop-color:#8b5cf6"/>
      <stop offset="100%" style="stop-color:#ec4899"/>
    </linearGradient>
  </defs>
  <rect width="400" height="240" fill="url(#bg1)"/>
  <!-- Interconnected nodes representing lifecycle -->
  <circle cx="80" cy="120" r="24" fill="url(#grad1)" opacity="0.9"/>
  <circle cx="160" cy="70" r="20" fill="url(#grad2)" opacity="0.8"/>
  <circle cx="240" cy="90" r="22" fill="url(#grad1)" opacity="0.85"/>
  <circle cx="320" cy="120" r="24" fill="url(#grad2)" opacity="0.9"/>
  <circle cx="200" cy="170" r="26" fill="url(#grad1)" opacity="0.9"/>
  <!-- Connection lines -->
  <path d="M100 115 Q130 80 140 75" stroke="url(#grad1)" stroke-width="2" opacity="0.6"/>
  <path d="M178 78 Q210 70 222 85" stroke="url(#grad2)" stroke-width="2" opacity="0.6"/>
  <path d="M260 98 Q290 105 298 115" stroke="url(#grad1)" stroke-width="2" opacity="0.6"/>
  <path d="M100 130 Q150 180 175 172" stroke="url(#grad2)" stroke-width="2" opacity="0.5"/>
  <path d="M225 168 Q280 160 300 130" stroke="url(#grad1)" stroke-width="2" opacity="0.5"/>
  <!-- Small accent dots -->
  <circle cx="130" cy="95" r="4" fill="#60a5fa" opacity="0.7"/>
  <circle cx="280" cy="105" r="4" fill="#a78bfa" opacity="0.7"/>
  <circle cx="150" cy="150" r="3" fill="#f472b6" opacity="0.6"/>
</svg>
